<svg xmlns="http://www.w3.org/2000/svg" width="177" height="156" viewBox="0 0 177 156">
    <g fill="none" fill-rule="evenodd">
        <circle cx="70" cy="70" r="70" fill="#E1EFFB"/>
        <path fill="#2F4268" d="M170.667 146.531a3.161 3.161 0 0 1-3.167 3.157h-133a3.161 3.161 0 0 1-3.167-3.157v-3.156h139.334v3.156zm-17.828-85.219h8.328a3.162 3.162 0 0 1 3.167 3.157v72.593H37.667V64.47a3.162 3.162 0 0 1 3.167-3.157h112.005zM82 105.5v6.312-6.312zM91.753 55h-50.92c-5.246 0-9.5 4.24-9.5 9.469v72.593h-3.166A3.162 3.162 0 0 0 25 140.22v6.312c0 5.23 4.253 9.469 9.5 9.469h133c5.247 0 9.5-4.24 9.5-9.469v-6.312a3.162 3.162 0 0 0-3.167-3.157h-3.167V64.47c0-5.23-4.253-9.469-9.5-9.469H91.753z"/>
        <path fill="#2F4268" d="M65 124.667h3.167v-19H65v19zm22.167 0h3.167V112h-3.167v12.667zm-38 6.333H103v-6.333h-6.333v-15.834a3.167 3.167 0 0 0-3.167-3.167H84a3.167 3.167 0 0 0-3.167 3.167v15.833H74.5V102.5a3.167 3.167 0 0 0-3.167-3.167h-9.5a3.167 3.167 0 0 0-3.166 3.167v22.167h-6.333V93H46v34.833A3.167 3.167 0 0 0 49.167 131zM102.473 17.308a3.156 3.156 0 0 1 3.158 3.154 3.156 3.156 0 0 1-3.158 3.153 3.156 3.156 0 0 1-3.158-3.153 3.156 3.156 0 0 1 3.158-3.154m22.106 22.077a3.156 3.156 0 0 1 3.158 3.153 3.156 3.156 0 0 1-3.158 3.154 3.156 3.156 0 0 1-3.158-3.154 3.156 3.156 0 0 1 3.158-3.153m18.947-18.923a3.156 3.156 0 0 1 3.158 3.153 3.156 3.156 0 0 1-3.158 3.154 3.156 3.156 0 0 1-3.158-3.154 3.156 3.156 0 0 1 3.158-3.153m-41.053 9.461a9.483 9.483 0 0 0 4.074-.946l9.474 9.461a9.452 9.452 0 0 0-.916 4.1c0 5.226 4.242 9.462 9.474 9.462s9.474-4.236 9.474-9.462a9.448 9.448 0 0 0-.948-4.068l6.316-6.308a9.484 9.484 0 0 0 4.105.915c5.232 0 9.474-4.236 9.474-9.462 0-5.225-4.242-9.461-9.474-9.461s-9.473 4.236-9.473 9.461c.008 1.41.332 2.8.947 4.069l-6.316 6.307a9.168 9.168 0 0 0-8.115 0l-9.474-9.461a9.45 9.45 0 0 0 .852-4.068c0-5.226-4.241-9.462-9.473-9.462C97.242 11 93 15.236 93 20.462c0 5.225 4.241 9.461 9.473 9.461"/>
        <path fill="#FF6800" d="M129.5 113.614c-11.091 0-20.115-9.023-20.115-20.114 0-11.091 9.024-20.115 20.115-20.115s20.115 9.024 20.115 20.115c0 11.09-9.024 20.114-20.115 20.114m0-46.614C114.888 67 103 78.888 103 93.5s11.888 26.5 26.5 26.5S156 108.112 156 93.5 144.112 67 129.5 67"/>
        <path fill="#FF6800" d="M129.5 101.582c-4.456 0-8.082-3.625-8.082-8.082 0-4.456 3.626-8.082 8.082-8.082 4.456 0 8.082 3.626 8.082 8.082 0 4.457-3.626 8.082-8.082 8.082m0-22.582c-7.995 0-14.5 6.505-14.5 14.5s6.505 14.5 14.5 14.5 14.5-6.505 14.5-14.5S137.495 79 129.5 79"/>
        <path fill="#2F4268" d="M83.74 42.515a3.245 3.245 0 0 1-3.247-3.243 3.245 3.245 0 0 1 3.247-3.242 3.245 3.245 0 0 1 3.247 3.242 3.245 3.245 0 0 1-3.247 3.243zM99 28.605L94.455 24l-6.494 6.485a9.751 9.751 0 0 0-4.22-.94C78.36 29.545 74 33.9 74 39.272 74 44.645 78.36 49 83.74 49s9.74-4.355 9.74-9.728a9.718 9.718 0 0 0-.973-4.183L99 28.605z"/>
    </g>
</svg>
