<svg xmlns="http://www.w3.org/2000/svg" width="147" height="147" viewBox="0 0 147 147">
    <path fill="#2F4268" fill-rule="evenodd" d="M130.552 76.087l-.007.006c-7.872 6.924-12.505 16.847-12.71 27.223l-.052 2.61h-13.104V60.493h-2.291v45.433H89.315l-.217-2.428c-.887-9.9-5.94-19.123-13.862-25.309-10.407-7.817-16.553-19.672-16.865-32.528l-.001-.036C58.13 22.526 76.358 3.45 99.867 2.196l.041-.002a44.39 44.39 0 0 1 1.696-.032c11.549 0 22.406 4.412 30.572 12.423 8.166 8.012 12.663 18.664 12.662 29.994-.01 11.99-5.216 23.474-14.286 31.508zm-41.92 44.972h28.103v-12.97H88.632v12.97zm-34.588 23.78a6.493 6.493 0 0 1-6.485-6.486 6.493 6.493 0 0 1 6.485-6.485c3.57 0 6.48 2.904 6.485 6.473-.006 3.593-2.915 6.497-6.485 6.497zm83.635-72.52a45.079 45.079 0 0 1-5.552 5.984c-7.3 6.51-11.62 15.845-11.85 25.61l-.064 2.74h7.694v2.262h-7.641l-.002 14.125c-.024 9-7.39 16.332-16.417 16.343H63.082l-.633 1.785A8.79 8.79 0 0 1 54.174 147c-4.84 0-8.777-3.924-8.777-8.748 0-4.823 3.937-8.747 8.777-8.747a8.789 8.789 0 0 1 8.274 5.831l.633 1.786h40.766c5.985 0 11.346-3.779 13.34-9.402l1.267-3.57h-29.89a1.134 1.134 0 0 1-1.135-1.132v-14.103h-7.643v-2.261h7.765l-.323-2.967c-.98-9.015-5.616-17.434-12.717-23.099l-.041-.032C64.923 73.242 58.807 62.66 57.246 50.76c-1.561-11.9 1.62-23.693 8.958-33.207C73.543 8.039 84.16 1.943 96.097.387c11.94-1.556 23.771 1.615 33.316 8.93 19.706 15.098 23.414 43.36 8.266 63.001zm-62.124 57.387c-1.29-8.896-8.7-15.737-17.621-15.737H32.668l-.628 1.844c-1.227 3.604-4.524 6.025-8.205 6.025-4.799 0-8.703-4.054-8.703-9.037 0-4.983 3.904-9.036 8.703-9.036 3.68 0 6.978 2.42 8.205 6.024l.628 1.844h25.263c10.153.01 18.575 7.895 19.893 18.073h-2.27zm-51.776-10.809a6.493 6.493 0 0 0 6.486-6.485 6.493 6.493 0 0 0-6.486-6.486 6.493 6.493 0 0 0-6.485 6.486 6.493 6.493 0 0 0 6.485 6.485zm12.25-87.25c-3.448-1.198-5.764-4.419-5.764-8.014 0-4.687 3.879-8.5 8.647-8.5 4.768 0 8.647 3.813 8.647 8.5 0 3.595-2.317 6.816-5.765 8.015l-1.765.613v10.974h-2.235V32.261l-1.765-.613zm2.883-14.353a6.493 6.493 0 0 0-6.486 6.485 6.493 6.493 0 0 0 6.486 6.486 6.493 6.493 0 0 0 6.485-6.486 6.493 6.493 0 0 0-6.485-6.485zm17.207 84.309c-1.277-8.895-8.621-15.737-17.46-15.737H17.376l-.623 1.844c-1.216 3.604-4.483 6.024-8.13 6.024C3.868 93.734 0 89.681 0 84.698c0-4.982 3.869-9.036 8.623-9.036 3.648 0 6.916 2.42 8.131 6.024l.623 1.844h21.279c10.06.01 18.406 7.894 19.712 18.073h-2.25zM8.647 90.794a6.493 6.493 0 0 0 6.485-6.485 6.493 6.493 0 0 0-6.485-6.485 6.493 6.493 0 0 0-6.485 6.485 6.493 6.493 0 0 0 6.485 6.485zm30.186-25.96c0-6.29-4.235-11.833-10.3-13.483l-2.288-.621-.875 2.203a8.624 8.624 0 0 1-8.056 5.474c-4.779 0-8.667-3.888-8.667-8.667 0-4.778 3.888-8.666 8.667-8.666a8.643 8.643 0 0 1 8.245 5.994l.493 1.523 1.578.274a16.191 16.191 0 0 1 13.444 15.968V73.5h-2.24v-8.667zm-21.539-8.628a6.493 6.493 0 0 0 6.485-6.485 6.493 6.493 0 0 0-6.485-6.486 6.493 6.493 0 0 0-6.485 6.486 6.493 6.493 0 0 0 6.485 6.485zm97.428-.188c.188.123.408.188.637.188.3 0 .588-.118.804-.33l13.543-13.22-1.621-1.582-12.871 12.562-10.811-7.033a1.167 1.167 0 0 0-1.275-.001l-10.812 7.034-12.87-12.562-1.622 1.583L91.36 55.87c.385.377.994.436 1.448.14l10.957-7.13 10.956 7.138z" opacity=".1"/>
</svg>
