<svg xmlns="http://www.w3.org/2000/svg" xmlns:xlink="http://www.w3.org/1999/xlink" width="170" height="153" viewBox="0 0 170 153">
    <defs>
        <path id="a" d="M0 124h138V.022H0z"/>
    </defs>
    <g fill="none" fill-rule="evenodd">
        <circle cx="70" cy="70" r="70" fill="#E1EFFB"/>
        <path fill="#2F4268" d="M46 46a3 3 0 0 0 0-6 3 3 0 0 0 0 6zM58 46a3 3 0 0 0 0-6 3 3 0 0 0 0 6z"/>
        <g transform="translate(32 29)">
            <path fill="#2F4268" d="M92 86.47H66.125c-6.39-12.81-21.933-18.004-34.715-11.6a25.908 25.908 0 0 0-11.573 11.6H8.625A2.878 2.878 0 0 1 5.75 83.59v-54.75h126.5v54.75a2.878 2.878 0 0 1-2.875 2.882H92zm-46 4.582V78.057a20.094 20.094 0 0 1 9.143 3.803L46 91.052zm13.22 18.986L47.18 97.998l12.017-12.046a20.064 20.064 0 0 1 .024 24.086zm-16.095 8.13c-11.114-.085-20.055-9.185-19.97-20.326.077-9.908 7.322-18.294 17.095-19.786v19.94a2.886 2.886 0 0 0 .834 2.047l14.059 14.09a20.09 20.09 0 0 1-12.018 4.036zM5.75 8.668a2.878 2.878 0 0 1 2.875-2.882h120.75a2.878 2.878 0 0 1 2.875 2.882v14.408H5.75V8.667zM126.5 92.234h2.875c4.763 0 8.625-3.87 8.625-8.645V8.667c0-4.775-3.862-8.645-8.625-8.645H8.625C3.862.022 0 3.892 0 8.667v74.922c0 4.774 3.862 8.645 8.625 8.645h9.286c-3.21 13.957 5.476 27.88 19.402 31.097 13.925 3.218 27.815-5.489 31.026-19.446a25.994 25.994 0 0 0 0-11.651h58.16z"/>
            <path fill="#FF6800" d="M46 43.246h-5.75v14.408H34.5V49.01h-5.75v8.645H23V34.601h-5.75v25.935a2.878 2.878 0 0 0 2.875 2.882H51.75v-5.763H46V43.246zM112.125 51.891h5.75V40.365A2.878 2.878 0 0 0 115 37.483h-11.5v5.763h4.571l-17.508 17.55-10.897-10.922a2.87 2.87 0 0 0-4.054 0l-8.625 8.645 4.054 4.063 6.584-6.628 10.896 10.922a2.87 2.87 0 0 0 4.054 0l19.55-19.567v4.582z"/>
            <mask id="b" fill="#fff">
                <use xlink:href="#a"/>
            </mask>
            <path fill="#2F4268" d="M120.75 17.312h5.75v-5.763h-5.75z" mask="url(#b)"/>
        </g>
    </g>
</svg>
