<svg xmlns="http://www.w3.org/2000/svg" width="145" height="152" viewBox="0 0 145 152">
    <defs>
        <path id="a" d="M0 142.498h136.897V0H0z"/>
    </defs>
    <g fill="none" fill-rule="evenodd" opacity=".1">
        <path fill="#2F4268" d="M131.33 114.167c-.743 2.775-3.614 4.425-6.398 3.679l-8.896-2.384a.91.91 0 0 0-1.116.641l-4.749 17.725c-.743 2.774-3.614 4.424-6.398 3.678l-13.947-3.737 3.167-11.817-1.76-.472-6.568 24.51c-.744 2.774-3.614 4.424-6.399 3.678l-17.791-4.767c-2.781-.745-4.443-3.607-3.704-6.379l.017-.062.001-.004 4.176-15.587-1.76-.472-4.194 15.651c-.747 2.772-3.616 4.42-6.397 3.675l-17.792-4.767c-2.784-.747-4.445-3.61-3.702-6.385l3.166-11.817a.91.91 0 0 0-.645-1.113l-14.826-3.972c-2.785-.746-4.446-3.61-3.702-6.385l8.15-30.418-1.76-.471-3.167 11.816-8.015-2.148c-2.785-.746-4.446-3.61-3.702-6.385L13.7 38.321c.744-2.774 3.614-4.424 6.399-3.678l8.895 2.384a.91.91 0 0 0 1.116-.641l4.749-17.725c.743-2.774 3.614-4.424 6.399-3.678l13.946 3.737-3.167 11.817 1.76.472 6.568-24.51c.744-2.775 3.614-4.425 6.399-3.679l17.791 4.768c2.781.745 4.443 3.606 3.704 6.378l-.016.059v.004l-4.179 15.59 1.761.473 4.254-15.876.015-.03c.848-2.618 3.627-4.143 6.322-3.42l17.792 4.767c2.785.746 4.445 3.61 3.702 6.385l-3.166 11.816a.91.91 0 0 0 .645 1.113l14.826 3.973c2.785.746 4.446 3.61 3.703 6.384l-8.15 30.418 1.76.472 3.166-11.816 8.016 2.147c2.784.747 4.445 3.61 3.702 6.385l-11.082 41.357zm7.85-49.496l-8.016-2.148 4.514-16.847c1.003-3.742-1.237-7.604-4.993-8.61l-13.946-3.737 2.932-10.94c1.002-3.741-1.238-7.603-4.993-8.61L96.886 9.012a7.052 7.052 0 0 0-5.003.512l-1.723.868-1.058-1.613a7.052 7.052 0 0 0-4.077-2.945L67.234 1.067c-3.756-1.007-7.627 1.218-8.63 4.96l-2.93 10.94-13.947-3.738c-3.755-1.006-7.626 1.22-8.629 4.96l-4.514 16.848-8.015-2.147c-3.756-1.007-7.627 1.218-8.63 4.96L.86 79.207c-1.003 3.742 1.237 7.604 4.992 8.61l8.015 2.148-4.514 16.848c-1.003 3.741 1.237 7.604 4.993 8.61l13.946 3.737-2.931 10.94c-1.003 3.74 1.237 7.603 4.992 8.61l17.792 4.767a7.054 7.054 0 0 0 5.003-.513l1.723-.867 1.058 1.613a7.054 7.054 0 0 0 4.077 2.945l17.791 4.767c3.756 1.006 7.627-1.219 8.63-4.96l2.93-10.94 13.947 3.737c3.755 1.006 7.626-1.219 8.629-4.96l4.514-16.848 8.015 2.148c3.756 1.006 7.627-1.219 8.63-4.96l11.081-41.358c1.003-3.741-1.237-7.604-4.993-8.61z"/>
        <path fill="#2F4268" d="M97.104 58.603l-35.791-9.59a5.267 5.267 0 0 0-5.424 1.737l-1.896-.508a7.103 7.103 0 0 1 7.793-2.996l5.08 1.362 2.392-8.928 1.77.475-2.391 8.927 10.159 2.722 2.392-8.927 1.771.474-2.392 8.928L90.727 55l2.392-8.928 1.77.475-2.392 8.928 5.08 1.36a7.103 7.103 0 0 1 5.252 6.491l-1.896-.508a5.267 5.267 0 0 0-3.83-4.216zm-6.861 44.111l1.896.508a7.103 7.103 0 0 1-7.793 2.995l-5.08-1.361-2.392 8.928-1.771-.475 2.392-8.927-10.16-2.723-2.392 8.928-1.77-.475 2.392-8.927-10.16-2.722-2.392 8.927-1.77-.474 2.391-8.928-5.08-1.361a7.103 7.103 0 0 1-5.25-6.49l1.895.508a5.267 5.267 0 0 0 3.829 4.215l35.79 9.59a5.267 5.267 0 0 0 5.425-1.736zM39.135 68.587l.474-1.767 7.736 2.073-.473 1.767-7.737-2.073zm-3.19 11.903l.474-1.766 7.736 2.072-.473 1.767-7.736-2.073zm6.38-23.806l.473-1.767 7.736 2.073-.473 1.767-7.736-2.073zM98.787 84.57l.473-1.766 7.736 2.072-.473 1.767-7.736-2.073zm-3.19 11.904l.474-1.767 7.736 2.073-.474 1.767-7.736-2.073zm6.38-23.807l.473-1.767 7.736 2.073-.474 1.767-7.736-2.073zM60.411 75.25l10.37 2.778L73.5 67.87l-10.368-2.778-2.722 10.157zm8.297 10.512l1.807.484L74.76 70.41a3.813 3.813 0 0 0-.43-3.1 3.986 3.986 0 0 0-2.448-1.772l-.045-.012-6.13-1.643a3.969 3.969 0 0 0-3.152.39 3.809 3.809 0 0 0-1.779 2.387l-.011.044L56.532 82.5l1.807.484 1.598-5.963 10.369 2.778-1.598 5.964zM80.688 88.972l1.272.34 5.268-19.663-1.271-.34zM20.256 65.3l1.271.342.34-1.27-1.271-.34zM122.231 86.506l1.272.341.34-1.268-1.272-.341z"/>
    </g>
</svg>
