<svg xmlns="http://www.w3.org/2000/svg" width="170" height="176" viewBox="0 0 170 176">
    <g fill="none" fill-rule="evenodd">
        <circle cx="70" cy="70" r="70" fill="#E1EFFB"/>
        <path fill="#2F4268" fill-rule="nonzero" d="M121.125 136h-40.25c-1.588 0-2.875 1.298-2.875 2.9v23.2c0 1.602 1.287 2.9 2.875 2.9h40.25c1.588 0 2.875-1.298 2.875-2.9v-23.2c0-1.602-1.287-2.9-2.875-2.9zm-2.875 23.2h-34.5v-17.4h34.5v17.4z"/>
        <path fill="#2F4268" fill-rule="nonzero" d="M130.137 159H72.864c-1.582 0-2.864 1.269-2.864 2.833v8.5c0 3.13 2.564 5.667 5.727 5.667h51.546c3.163 0 5.727-2.537 5.727-5.667v-8.5c0-1.564-1.282-2.833-2.863-2.833zm-2.864 11.333H75.727v-5.666h51.546v5.666zM161.375 38H40.625C35.862 38 32 41.88 32 46.667v86.666c0 4.787 3.862 8.667 8.625 8.667h120.75c4.763 0 8.625-3.88 8.625-8.667V46.667c0-4.787-3.862-8.667-8.625-8.667zm2.875 95.333a2.882 2.882 0 0 1-2.875 2.89H40.625a2.882 2.882 0 0 1-2.875-2.89V46.667a2.882 2.882 0 0 1 2.875-2.89h120.75a2.882 2.882 0 0 1 2.875 2.89v86.666z"/>
        <path fill="#2F4268" fill-rule="nonzero" d="M64 170h75v6H64zM152.167 53H121v5.667h28.333V70H155V55.833A2.833 2.833 0 0 0 152.167 53zM52.667 121.333V110H47v14.167A2.833 2.833 0 0 0 49.833 127H81v-5.666H52.667z"/>
        <path fill="#FF6800" fill-rule="nonzero" d="M118.333 64H83.667C78.88 64 75 68.03 75 73h5.778c0-1.657 1.293-3 2.889-3h34.666c1.596 0 2.89 1.343 2.89 3H127c0-4.97-3.88-9-8.667-9zM121.222 107c0 1.657-1.293 3-2.889 3H83.667c-1.596 0-2.89-1.343-2.89-3H75c0 4.97 3.88 9 8.667 9h34.666c4.787 0 8.667-4.03 8.667-9h-5.778z"/>
        <path fill="#FF6800" fill-rule="nonzero" d="M98 113h6v11h-6zM110 113h6v11h-6zM87 113h6v11h-6zM98 55h6v11h-6zM110 55h6v11h-6zM87 55h6v11h-6zM57.737 86.283c-.176.018-.354.02-.53.003-1.466-.136-2.542-1.416-2.404-2.86V72h-5.8v11.427a8.085 8.085 0 0 0 0 .487c.137 4.598 4.032 8.217 8.7 8.082H78v-5.713H57.737zM66 98h11v6H66z"/>
        <path fill="#FF6800" fill-rule="nonzero" d="M66 76h11v6H66zM124 98h11v6h-11zM124 76h11v6h-11z"/>
        <path fill="#2F4268" fill-rule="nonzero" d="M98.333 78.001h-5.666a5.682 5.682 0 0 0-.235 0c-3.064.066-5.496 2.64-5.43 5.75V101h5.665V83.75h5.666V101h5.666V83.75a5.94 5.94 0 0 0 0-.237c-.065-3.11-2.602-5.577-5.666-5.512zM110 78h6v23h-6z"/>
        <path fill="#2F4268" fill-rule="nonzero" d="M89 90h11v6H89z"/>
        <path fill="#FF6800" fill-rule="nonzero" d="M144.297 87.004H124v5.713h20.263c.176-.019.354-.02.53-.003 1.466.135 2.542 1.416 2.404 2.86V107h5.8V95.573a8.085 8.085 0 0 0 0-.487c-.137-4.598-4.032-8.217-8.7-8.082zM51.5 58a8.5 8.5 0 1 0 0 17 8.5 8.5 0 0 0 0-17zm0 11.333a2.833 2.833 0 1 1 0-5.667 2.833 2.833 0 0 1 0 5.667z"/>
        <path fill="#FF6800" fill-rule="nonzero" d="M149.5 104a8.5 8.5 0 1 0 0 17 8.5 8.5 0 0 0 0-17zm0 11.333a2.833 2.833 0 1 1 0-5.667 2.833 2.833 0 0 1 0 5.667z"/>
        <path fill="#2F4268" fill-rule="nonzero" d="M47 98h6v6h-6zM150 76h6v6h-6z"/>
    </g>
</svg>
