<svg xmlns="http://www.w3.org/2000/svg" xmlns:xlink="http://www.w3.org/1999/xlink" width="127" height="142" viewBox="0 0 127 142">
    <defs>
        <path id="a" d="M63.5 162.834c20.052 0 35.991-9.464 46.584-20.508 12.601-13.138 17.696-29.121 16.503-45.85C124.39 65.684 107.407 0 63.5 0 19.593 0 .094 49.909.094 93.815c0 22.97 4.015 34.048 17.872 49.843 9.903 11.289 24.596 19.176 45.534 19.176z"/>
        <path id="c" d="M.39.663h67.977V48.75H.391z"/>
    </defs>
    <g fill="none" fill-rule="evenodd" transform="translate(0 -21)">
        <circle cx="63.5" cy="99.5" r="63.5" fill="#EAEEF2"/>
        <mask id="b" fill="#fff">
            <use xlink:href="#a"/>
        </mask>
        <g mask="url(#b)">
            <path fill="#E2A77D" d="M79.563 87.117l.076 1.499.627 12.382-17.474 15.927-6.11-5.597-9.908-9.077-.772-15.224z"/>
            <path fill="#FFC28E" d="M60.219 40.271c1.98.535 4.667-2.022 5.947-3.064a27.086 27.086 0 0 1 7.762-4.425c2.056-.753 4.319-1.257 6.424-.66 3.095.882 5.138 3.998 5.711 7.17 1.168 6.46-2.071 13.142-1.033 19.61.144.906.391 2.958 1.833 1.969.597-.408.215-1.518.855-2.01 1.41-1.085 2.102.647 2.21 1.692.395 3.725.027 7.83-1.574 11.305-.926 2.013-2.332 2.645-3.693 4.136-1.51 1.654-1.09 4.724-1.581 6.717a11.1 11.1 0 0 1-1.655 3.707c-1.646 2.356-4.653 3.571-6.565 5.734-1.79 2.028-3.438 4.045-5.97 5.42-1.528.831-3.709.957-5.72.967-.262.023-.525.048-.792.068l-2.963-58.516c.266.061.542.11.804.18"/>
            <path fill="#F0B784" d="M32.71 63.462c.003-1.051.515-2.844 2.029-1.909.685.424.416 1.567 1.053 1.914 1.534.838 1.571-1.23 1.624-2.145.202-3.48-1.633-6.718-1.363-10.145.249-3.14-.07-6.369.92-9.449.856-2.668 2.546-5.126 4.95-6.56a9.746 9.746 0 0 1 7.486-1.007c2.195.607 3.718 1.937 5.195 3.593 1.61 1.804 2.37 1.786 4.81 2.338l2.965 58.515c-1.772.137-3.604.135-4.997-.448-2.66-1.114-4.503-2.952-6.49-4.79-2.118-1.96-5.231-2.862-7.108-5.04-.88-1.02-1.552-2.204-2.022-3.518-.69-1.932-.584-5.03-2.252-6.52-1.505-1.347-2.965-1.835-4.092-3.741-1.943-3.297-2.725-7.344-2.709-11.088"/>
            <path fill="#4D1606" d="M88.203 56.112c-.454 2.127-.773 4.25-.71 6.36l-2.668.137c-.054-.522-.052-1.018-.052-1.324.009-1.435-.106-2.569-.258-3.994-.661-6.209 1.565-26.713-11.185-20.256-1.873.946-3.522 2.284-5.356 3.31-5.283 2.952-12.067 3.022-17.411.18-2.978-1.583-7.732-5.254-10.854-1.889-2.037 2.198-1.265 7.99-1.438 10.686-.238 3.74-.606 7.14-.305 10.96.12 1.543.52 3.035.562 4.595-4.104 1.538-3.223-3.028-4.016-5.404-1.32-3.942-1.624-7.555-1.839-11.601-.209-3.958-1.599-8.28-.358-12.22 2.439-7.72 12.793-11.989 19.975-13.587 7.75-1.726 16.272-1.327 23.856 1.006 3.136.964 7.965 2.473 10.175 5.086 2.23 2.636 2.456 7.517 3.069 10.882 1.023 5.639-.01 11.543-1.187 17.073"/>
            <path fill="#FFF" d="M46.972 99.176l-8.455 7.233a80.767 80.767 0 0 0 6.164 10.116 81.721 81.721 0 0 0 9.865 11.413s2.32-9.13 8.415-13.675c-9.284-3.118-15.99-15.087-15.99-15.087"/>
            <path fill="#2F4268" d="M62.961 170.138V114.26s-4.056 8.542-8.705 6.265l-7.173-17.613-6.32 2.858-7.347 3.339-2.264.684-6.007 1.849-8.598 2.621A37.363 37.363 0 0 0 .5 124.122l-1 1.042c-1.376 1.439-2.315 3.219-2.681 5.17C-3.6 132.538-4.231 146.896-5 151l67.961 19.14zM131.065 167c-.771-4.105-1.402-34.463-1.82-36.665-.365-1.952-1.306-3.732-2.681-5.171a42.889 42.889 0 0 0-18.428-11.321l-7.218-2.201-6.008-1.85-2.263-.683-7.347-3.339-6.32-2.858-7.173 17.613c-4.649 2.277-8.706-6.265-8.706-6.265L63.088 167h67.978z"/>
            <path fill="#BAD1DD" d="M77.256 161l3.73-26.196-16.234-22.422H62.57S45.5 134.58 45.621 136.191l3.687 24.808h27.948z"/>
            <path fill="#3D5872" d="M59.444 128.397l-4.351 35.502h16.37l-4.351-35.502a4.918 4.918 0 0 1 .415-3.201l2.694-5.37a.906.906 0 0 0-.182-.942c-1.039-1.091-2.077-2.186-3.118-3.277-.704-.743-1.554-1.44-1.966-2.414-.291-.699-1.099-2.26-2.035-1.597-.82.582-1.094 1.49-1.625 2.263-.528.766-1.356 1.427-1.993 2.1l-2.782 2.925a.906.906 0 0 0-.185.941l2.697 5.37c.492.982.641 2.117.412 3.202"/>
            <path fill="#E4F4FF" d="M63.716 110.931a.63.63 0 0 1-.876 0L46.536 95.406l-3.645 11.27 7.046 24.617 12.808-19.018a.635.635 0 0 1 1.067 0l12.808 19.018 7.044-24.617-3.643-11.27-16.305 15.525z"/>
            <path fill="#677897" d="M81.754 163.9l18.39-39.834-14.195-3.81 15.566-5.106c-2.235-2.643-3.68-3.878-7.088-6.321-6.309-3.689-10.587-5.502-11.978-5.917l-7.133 26.036-7.785 34.951h14.223zM26.42 124.066l11.188 40.575 22.281 1.515-10.854-43.63-4.926-19.614c-1.394.404-7.142 1.632-11.983 5.455-2.743 1.97-4.77 4.015-7.09 6.783l15.565 5.106-14.182 3.81z"/>
            <path fill="#020202" d="M75.824 69.21l-.338.007c-.767 0-1.53-.08-2.261-.238a9.763 9.763 0 0 1-6.911-5.61c-.278-.62-.235-1.165.131-1.714 1.132-1.69 4.96-3.015 9.102-3.147 3.398-.108 6.248.62 7.623 1.947.692.668 1.004 1.468.957 2.446-.189 3.974-4.32 6.182-8.303 6.309zm-18.231-5.563a9.771 9.771 0 0 1-6.54 6.041c-.721.204-1.477.332-2.241.383l-.339.014c-3.984.129-8.247-1.812-8.689-5.765-.11-.973.152-1.79.799-2.502 1.289-1.412 4.087-2.322 7.486-2.429 4.14-.135 8.044.943 9.282 2.559.402.523.478 1.063.242 1.699zm31.095-5.574l-.757-1.878s-8.39.076-12.45.206c-3.98.128-8.72 1.363-10.665 3.824l-.062-.1c-1.124.591-2.089.815-2.882.846-.797.02-1.772-.143-2.933-.663l-.052.107c-2.1-2.331-6.91-3.26-10.888-3.133-4.06.13-13.981 1.551-13.981 1.551l-.573 2.582 4.131 2.082c-.027.343-.029.695.011 1.053.584 5.227 5.954 7.801 10.953 7.64a13.077 13.077 0 0 0 3.137-.484c3.736-1.06 6.65-3.742 7.996-7.359.187-.5.27-.994.26-1.478a8.03 8.03 0 0 0 2.006.22 7.953 7.953 0 0 0 1.988-.349c.02.484.135.972.353 1.461 1.576 3.521 4.655 6.01 8.447 6.832.895.194 1.821.291 2.755.291l.41-.007c5-.16 10.191-3.071 10.442-8.327a5.46 5.46 0 0 0-.056-1.051l2.41-3.866z"/>
        </g>
    </g>
</svg>
