<svg xmlns="http://www.w3.org/2000/svg" width="193" height="160" viewBox="0 0 193 160">
    <g fill="none" fill-rule="evenodd">
        <circle cx="70" cy="70" r="70" fill="#E1EFFB"/>
        <path fill="#2F4268" fill-rule="nonzero" d="M150.372 52.164V38.242H130.6V25H70.51v33.105h60.09V44.863h13.145v7.301c-3.857 1.367-6.628 5.047-6.628 9.362 0 4.316 2.77 7.996 6.628 9.363v7.3H130.6V64.947H70.51V78.19H50.628v13.922C46.77 93.478 44 97.158 44 101.474c0 4.315 2.77 7.995 6.628 9.362v13.922H70.51V138h60.09v-33.105H70.51v13.242H57.255v-7.301c3.857-1.367 6.628-5.047 6.628-9.362 0-4.316-2.77-7.996-6.628-9.363v-7.3H70.51v13.242h60.09V84.81h19.772V70.889c3.857-1.367 6.628-5.047 6.628-9.363 0-4.315-2.77-7.995-6.628-9.362zm-26.4-.68H77.139V31.621h46.835v19.863zm-46.834 60.032h46.835v19.863H77.138v-19.863zm-23.197-6.732a3.316 3.316 0 0 1-3.313-3.31 3.316 3.316 0 0 1 3.313-3.31 3.316 3.316 0 0 1 3.314 3.31 3.316 3.316 0 0 1-3.314 3.31zm70.032-13.352H77.138V71.568h46.835v19.864zm23.086-26.595a3.316 3.316 0 0 1-3.314-3.31 3.316 3.316 0 0 1 3.314-3.311 3.316 3.316 0 0 1 3.313 3.31 3.316 3.316 0 0 1-3.313 3.31z"/>
        <path fill="#2F4268" fill-rule="nonzero" d="M98 39h6v6h-6zM84 39h6v6h-6zM111 39h6v6h-6z"/>
        <path fill="#FF6800" fill-rule="nonzero" d="M98 79h6v6h-6zM84 79h6v6h-6zM111 79h6v6h-6z"/>
        <path fill="#2F4268" fill-rule="nonzero" d="M98 119h6v6h-6zM84 119h6v6h-6zM111 119h6v6h-6z"/>
        <path stroke="#2F4268" stroke-width="6" d="M164.246 68H190v89H18v-38.377h22.012"/>
        <path stroke="#FF6800" stroke-width="7" d="M73.5 68.5h54v26h-54z"/>
    </g>
</svg>
