<svg xmlns="http://www.w3.org/2000/svg" width="45" height="45" viewBox="0 0 45 45">
    <g fill="none" fill-rule="nonzero">
        <path stroke="#FFF" stroke-width="1.3" d="M22.54 1C10.705 1 1.077 10.645 1.077 22.5c0 11.854 9.628 21.5 21.461 21.5C34.372 44 44 34.354 44 22.5 44 10.645 34.374 1 22.54 1z"/>
        <path fill="#FFF" d="M25.766 19.242c-1.81 0-2.618.988-3.07 1.682v-1.441h-3.408c.044.954 0 10.184 0 10.184h3.408v-5.69c0-.304.02-.609.112-.826.247-.61.807-1.24 1.75-1.24 1.232 0 1.725.934 1.725 2.305v5.448h3.409v-5.84c0-3.126-1.683-4.582-3.926-4.582zm-3.072 1.717h-.022c.007-.011.017-.022.022-.034v.034zM14.085 19.242h3.902v10.424h-3.902zM16.047 14.03c-1.185 0-1.962.844-1.962 1.955 0 1.085.753 1.954 1.916 1.954h.023c1.21 0 1.963-.869 1.963-1.954-.023-1.11-.752-1.955-1.94-1.955z"/>
    </g>
</svg>
