<svg xmlns="http://www.w3.org/2000/svg" width="23" height="22" viewBox="0 0 23 22">
    <g fill="#677897" fill-rule="nonzero">
        <path d="M12 10c1.654 0 3-1.346 3-3s-1.346-3-3-3-3 1.346-3 3 1.346 3 3 3zm0-5.143c1.182 0 2.143.961 2.143 2.143A2.145 2.145 0 0 1 12 9.143 2.145 2.145 0 0 1 9.857 7c0-1.182.961-2.143 2.143-2.143z"/>
        <path stroke="#677897" stroke-width=".2" d="M18.819 13.555h-2.541l1.08-1.587c2.043-2.767 1.747-7.314-.631-9.731A6.704 6.704 0 0 0 11.915.21c-1.817 0-3.526.72-4.811 2.026-2.379 2.417-2.674 6.965-.64 9.72l1.088 1.598H4.886L1 21.85h21.705l-3.886-8.295zm-11.78-2.02c-1.844-2.5-1.58-6.607.567-8.789a6.006 6.006 0 0 1 4.31-1.814c1.628 0 3.158.644 4.31 1.814 2.146 2.182 2.41 6.29.558 8.8l-4.869 7.146-3.5-5.137-1.376-2.02zm-1.704 2.741h2.709l3.871 5.683 3.871-5.683h2.584l3.21 6.853H2.125l3.21-6.853z"/>
    </g>
</svg>
