<svg xmlns="http://www.w3.org/2000/svg" width="20" height="20" viewBox="0 0 20 20">
    <g fill="#677897" fill-rule="nonzero" stroke="#677897">
        <path stroke-width=".2" d="M10 1c-4.963 0-9 4.037-9 9s4.037 9 9 9 9-4.037 9-9-4.037-9-9-9zm0 17.4c-4.632 0-8.4-3.768-8.4-8.4 0-4.632 3.768-8.4 8.4-8.4 4.632 0 8.4 3.768 8.4 8.4 0 4.632-3.768 8.4-8.4 8.4z"/>
        <path stroke-width=".5" d="M10 3.8a.3.3 0 0 0-.3.3V11H5.2a.3.3 0 1 0 0 .6H10a.3.3 0 0 0 .3-.3V4.1a.3.3 0 0 0-.3-.3z"/>
    </g>
</svg>
