<svg xmlns="http://www.w3.org/2000/svg" width="45" height="45" viewBox="0 0 45 45">
    <g fill="none" fill-rule="evenodd">
        <path stroke="#FFF" stroke-width="1.3" d="M22.542 1C10.71 1 1.082 10.645 1.082 22.5c0 11.854 9.627 21.5 21.46 21.5s21.461-9.646 21.461-21.5c0-11.855-9.626-21.5-21.46-21.5z"/>
        <path fill="#FFF" d="M32.116 17.58c.01.212.015.427.015.642 0 6.54-4.967 14.077-14.055 14.077-2.79 0-5.386-.817-7.572-2.221.387.046.78.069 1.178.069a9.902 9.902 0 0 0 6.135-2.118 4.946 4.946 0 0 1-4.614-3.438 4.97 4.97 0 0 0 2.23-.083 4.947 4.947 0 0 1-3.962-4.852l.001-.062c.666.37 1.428.593 2.237.618a4.947 4.947 0 0 1-2.197-4.118c0-.908.243-1.758.668-2.489a14.017 14.017 0 0 0 10.18 5.172 4.951 4.951 0 0 1-.126-1.128 4.944 4.944 0 0 1 4.938-4.949c1.422 0 2.704.601 3.606 1.562a9.849 9.849 0 0 0 3.138-1.2 4.97 4.97 0 0 1-2.175 2.738c1-.12 1.955-.385 2.837-.779a9.946 9.946 0 0 1-2.462 2.558z"/>
    </g>
</svg>
